<svg xmlns="http://www.w3.org/2000/svg" viewBox="0 0 70.21 111.51"><defs><style>.cls-1,.cls-4{fill:#fff;}.cls-2{fill:#f48900;}.cls-3{isolation:isolate;}.cls-4{font-size:14px;font-family:AvenirLTStd-Black, Avenir LT Std;font-weight:800;letter-spacing:0.05em;}</style></defs><g id="Travel_Logo_copy_Image" data-name="Travel Logo copy Image"><polygon id="black" points="6.47 21.15 63.98 21.15 68.13 23.96 70.21 28.72 70.21 96.37 65.57 103.33 42.61 103.69 26.86 103.59 5.62 103.45 0 96.85 0.12 27.62 2.56 23.35 6.47 21.15"/><path id="half_white_plane" data-name="half white plane" class="cls-1" d="M41.61,53.63l-1.34,1.1-2,6.71-.73,10-3.91,3.9L32,73.65l-1.46.49-.25,4-4.88,4.76-1.1-2-1.22-.61-1.22,1.1.24,3-.36,1.22s-5.62,4.89-5.62,5.13S16,93.19,16,93.19h2L37.7,84l1.7,19v.14l5.25-.24,1.1-19,21.12,9.77.61-2.57L44.78,77Z" transform="translate(-6.32 -4.64)"/><polygon class="cls-1" points="33.09 98.56 38.29 98.58 41.37 103.7 33.09 98.56"/><polygon id="other_half_white" data-name="other half white" class="cls-1" points="35.28 48.97 36.74 49.95 38.21 55.56 39.19 66.55 43.34 70.58 44.8 69 46.15 69 46.63 69.97 46.51 73.27 51.88 78.15 52.49 76.2 53.59 75.59 54.69 76.32 54.81 80.72 61.04 86.45 60.55 88.53 58.23 87.92 39.31 79.37 35.28 48.97"/><path class="cls-2" d="M27.81,6.13c-.68-.71-2-.34-3.3,0a9.34,9.34,0,0,0-5,2.93,8.92,8.92,0,0,0-1.71,3.18c-.15.45-.3,1-.37,5.61-.1,6.56.22,4.53.12,5.25s-.24,1.53.25,2a1.64,1.64,0,0,0,1.83,0c1.17-.81.25-3,.24-7.94,0-3.71.52-4.72.86-5.25A7.82,7.82,0,0,1,24,9.18c2-.8,3.48-.25,4-1.22A1.68,1.68,0,0,0,27.81,6.13Z" transform="translate(-6.32 -4.64)"/><path class="cls-2" d="M55,6.61c.68-.72,2-.34,3.3,0a9.34,9.34,0,0,1,5,2.93A8.9,8.9,0,0,1,65,12.71c.15.46.3,1,.37,5.62.1,6.55-.22,4.52-.12,5.25s.24,1.53-.25,2a1.61,1.61,0,0,1-1.83,0c-1.17-.81-.25-3-.24-7.93,0-3.72-.52-4.73-.86-5.25a7.79,7.79,0,0,0-3.29-2.69c-2-.8-3.49-.25-4-1.22A1.65,1.65,0,0,1,55,6.61Z" transform="translate(-6.32 -4.64)"/><path class="cls-2" d="M31.84,5.52c.74-.93,2.3-.8,3.91-.73,0,0,3.29.14,8.3-.12,1.34-.07,2.7.15,4,0a3.28,3.28,0,0,1,1.47.12,2.59,2.59,0,0,1,1.22.73,2.15,2.15,0,0,1,.61,1.71A2.19,2.19,0,0,1,50,8.7a2.84,2.84,0,0,1-1.58.12,35.89,35.89,0,0,0-4.4,0c-3-.13-5.58,0-6.47,0-2.95.13-4.92.4-5.74-.63A2.45,2.45,0,0,1,31.35,7,2.42,2.42,0,0,1,31.84,5.52Z" transform="translate(-6.32 -4.64)"/><polygon class="cls-1" points="33.11 97.12 33.17 100.47 39.13 100.65 38.29 98.58 38.34 98.32 38.38 95.81 34.75 95.6 33.11 97.12"/><polygon class="cls-1" points="29.4 103.65 41.34 103.76 36.31 100.59 33.07 98.63 29.4 103.65"/><polygon class="cls-1" points="33.2 98.13 32.93 99.14 41.19 103.67 41.37 103.7 37.05 98.63 33.2 98.13"/><polygon class="cls-1" points="34.57 49.92 35.28 48.97 36.47 50.09 39.45 70.94 31.63 70.65 34.57 49.92"/></g><g id="Ellipse_1" data-name="Ellipse 1" class="cls-3"><g id="Ellipse_1-2" data-name="Ellipse 1"><path class="cls-2" d="M41.23,33.24a4.33,4.33,0,1,0,4.08,4.32A4.2,4.2,0,0,0,41.23,33.24Z" transform="translate(-6.32 -4.64)"/></g><polyline class="cls-2" points="14.41 105.89 20.39 105.89 20.27 108.09 19.41 110.53 17.83 111.51 16.12 111.14 14.65 109.31 14.41 106.38"/><polygon class="cls-2" points="49.82 106.13 55.43 106.01 55.68 109.31 54.34 111.02 52.14 111.38 49.94 109.67 49.82 106.13"/><text class="cls-4" transform="translate(22.02 37.48)"><tspan xml:space="preserve">T  P</tspan></text></g></svg>